<!DOCTYPE svg PUBLIC "-//W3C//DTD SVG 20010904//EN" "http://www.w3.org/TR/2001/REC-SVG-20010904/DTD/svg10.dtd">
<svg version="1.0" xmlns="http://www.w3.org/2000/svg" width="512px" height="512px" viewBox="0 0 5120 5120" preserveAspectRatio="xMidYMid meet">
<g id="layer101" fill="#000000" stroke="none">
 <path d="M22 5097 l-22 -23 0 -1032 c0 -1120 -3 -1060 54 -1135 14 -19 50 -47 78 -63 l53 -29 248 -3 247 -3 0 -550 0 -549 -165 0 -165 0 0 85 c0 108 -16 149 -63 164 -38 13 -62 7 -94 -22 -21 -19 -23 -29 -23 -122 l0 -102 -42 -12 c-82 -24 -128 -88 -128 -176 0 -62 15 -98 57 -136 15 -14 223 -138 462 -275 l434 -249 -384 -5 c-372 -5 -385 -6 -425 -27 -96 -51 -143 -128 -144 -233 0 -111 53 -195 150 -239 37 -17 66 -21 161 -21 l116 0 -1 -72 c-1 -85 21 -144 75 -197 73 -74 37 -71 779 -71 627 0 667 1 706 19 53 24 109 80 125 126 7 19 17 35 22 35 5 0 69 -34 143 -76 74 -42 151 -82 172 -90 53 -19 177 -17 233 4 61 23 2346 1337 2382 1371 16 14 35 38 43 53 18 35 18 131 0 167 -22 42 -81 89 -121 97 l-35 6 0 102 c0 94 -2 104 -22 123 -33 29 -57 35 -95 22 -47 -15 -63 -56 -63 -164 l0 -85 -165 0 -165 0 0 549 0 550 248 3 247 3 53 29 c28 16 64 44 78 63 57 75 54 15 54 1136 l0 1034 -23 21 c-34 32 -96 30 -128 -4 l-24 -26 -3 -314 -3 -314 -80 0 -79 0 0 230 0 231 -25 24 c-34 35 -93 34 -126 -1 -24 -25 -24 -28 -27 -255 l-3 -229 -80 0 -79 0 0 145 c0 142 -1 147 -25 170 -17 18 -35 25 -62 25 -78 -1 -93 -35 -93 -211 l0 -129 -1700 0 -1700 0 0 129 c0 176 -15 210 -93 211 -27 0 -45 -7 -62 -25 -24 -23 -25 -28 -25 -170 l0 -145 -79 0 -80 0 -3 229 c-3 227 -3 230 -27 255 -33 35 -92 36 -126 1 l-25 -24 0 -231 0 -230 -79 0 -80 0 -3 314 -3 314 -24 26 c-33 35 -98 36 -129 3z m4918 -917 l0 -80 -2380 0 -2380 0 0 80 0 80 2380 0 2380 0 0 -80z m0 -340 l0 -80 -2380 0 -2380 0 0 80 0 80 2380 0 2380 0 0 -80z m-3920 -300 c0 -22 -3 -40 -6 -40 -3 0 -39 10 -80 22 -57 16 -74 25 -74 40 0 16 9 18 80 18 l80 0 0 -40z m340 -49 l0 -89 -80 22 -80 21 0 67 0 68 80 0 80 0 0 -89z m2220 -18 l0 -108 -378 -103 -377 -102 -310 0 -310 0 -265 76 c-146 41 -295 84 -332 95 l-68 20 0 114 0 115 1020 0 1020 0 0 -107z m338 45 l-3 -61 -65 -18 c-36 -10 -71 -18 -77 -19 -9 0 -13 22 -13 80 l0 80 80 0 81 0 -3 -62z m342 47 c0 -8 -17 -19 -42 -25 -24 -6 -56 -15 -72 -20 -43 -15 -46 -13 -46 25 l0 35 80 0 c64 0 80 -3 80 -15z m-3922 -319 l2 -256 -45 0 c-51 0 -99 20 -109 45 -3 9 -6 128 -6 265 l0 248 78 -23 77 -22 3 -257z m4597 -203 c-7 -30 -54 -53 -110 -53 l-45 0 0 258 0 258 78 20 77 20 3 -240 c1 -133 0 -251 -3 -263z m-4322 382 l67 -18 0 -208 0 -209 -80 0 -80 0 0 231 c0 181 3 230 13 227 6 -3 42 -13 80 -23z m3987 -205 l0 -230 -80 0 -80 0 2 212 3 211 60 18 c104 30 95 51 95 -211z m-340 -45 l0 -185 -80 0 -80 0 0 164 0 165 58 16 c31 9 62 18 67 20 34 12 35 7 35 -180z m-3292 149 l52 -15 0 -160 0 -159 -80 0 -80 0 0 181 0 181 28 -7 c15 -3 51 -13 80 -21z m2952 -195 l0 -141 -57 4 c-46 4 -61 10 -80 32 -20 24 -23 37 -23 115 l0 88 73 20 c39 11 75 21 80 22 4 0 7 -63 7 -140z m-2562 3 c2 -72 0 -83 -21 -108 -19 -22 -34 -28 -80 -32 l-57 -4 0 135 0 135 78 -23 77 -22 3 -81z m2249 -178 c48 -90 144 -144 260 -144 l53 0 0 -550 0 -550 -80 0 -80 0 0 51 c0 81 -29 118 -91 119 -26 0 -44 -7 -63 -26 -22 -23 -26 -35 -26 -85 l0 -59 -80 0 -80 0 0 90 c0 108 -14 143 -63 159 -38 13 -62 7 -94 -22 -21 -19 -23 -29 -23 -124 l0 -103 -79 0 -78 0 -6 62 c-7 75 -35 108 -93 108 -57 0 -84 -35 -84 -110 l0 -60 -125 0 -125 0 0 51 c0 80 -29 118 -90 118 -61 0 -90 -38 -90 -118 l0 -51 -125 0 -125 0 0 60 c0 75 -27 110 -84 110 -58 0 -86 -33 -93 -108 l-6 -62 -78 0 -79 0 0 103 c0 95 -2 105 -22 124 -33 29 -57 35 -95 22 -49 -16 -63 -51 -63 -159 l0 -90 -80 0 -80 0 0 59 c0 50 -4 62 -26 85 -19 19 -37 26 -63 26 -62 -1 -91 -38 -91 -119 l0 -51 -80 0 -80 0 0 550 0 550 53 0 c173 0 287 110 287 279 0 60 3 72 15 68 8 -4 51 -16 95 -28 59 -16 79 -26 76 -36 -3 -8 -11 -55 -17 -105 -32 -267 82 -560 284 -732 169 -143 347 -208 567 -208 269 0 507 112 668 315 165 207 223 461 167 732 l-7 30 94 25 93 25 5 -90 c4 -65 12 -102 27 -131z m-380 59 c32 -226 -35 -430 -192 -588 -182 -182 -437 -244 -685 -166 -142 45 -296 168 -373 301 -77 132 -109 305 -84 451 l8 46 117 -36 117 -36 385 1 385 0 135 41 c182 56 177 56 187 -14z m-2207 -753 l0 -550 -80 0 -80 0 0 550 0 550 80 0 80 0 0 -550z m3240 0 l0 -550 -80 0 -80 0 0 550 0 550 80 0 80 0 0 -550z m675 -739 c-6 -5 -527 -307 -1160 -671 -1274 -734 -1201 -698 -1296 -650 -24 13 -249 141 -499 285 -250 144 -754 434 -1120 645 -366 210 -669 386 -674 391 -6 5 954 9 2374 9 1424 0 2380 -4 2375 -9z m-3544 -908 c65 -37 115 -71 113 -75 -3 -4 -24 -12 -47 -19 -62 -16 -85 -35 -92 -73 -7 -36 6 -72 34 -93 11 -9 80 -12 240 -13 223 0 223 0 272 -27 27 -14 49 -32 49 -38 0 -27 -23 -76 -40 -85 -12 -6 -254 -10 -642 -10 -672 1 -647 -1 -668 54 -17 46 10 82 75 101 63 19 85 44 85 95 0 26 -7 43 -26 61 -25 24 -28 24 -274 29 -226 5 -250 7 -269 24 -21 19 -27 58 -15 91 17 42 45 44 579 45 l509 0 117 -67z"/>
 <path d="M1135 1345 c-25 -24 -33 -73 -18 -110 9 -24 300 -215 326 -215 58 0 97 38 97 93 0 39 -30 68 -177 165 -154 102 -185 111 -228 67z"/>
 <path d="M1733 1346 c-21 -19 -28 -33 -28 -64 0 -22 7 -47 15 -57 8 -10 75 -58 149 -108 160 -106 193 -116 241 -69 32 32 38 68 19 103 -6 11 -78 65 -160 120 -164 108 -188 116 -236 75z"/>
 <path d="M3150 1270 c-105 -70 -154 -108 -161 -127 -24 -64 26 -129 92 -120 41 5 297 171 323 209 25 35 20 76 -13 109 -48 48 -71 41 -241 -71z"/>
 <path d="M3890 1363 c-35 -14 -280 -184 -294 -205 -25 -35 -20 -76 13 -109 48 -48 71 -41 239 70 82 54 152 106 155 116 32 83 -35 158 -113 128z"/>
 <path d="M1815 915 c-29 -28 -33 -79 -9 -113 15 -22 218 -163 282 -196 42 -22 85 -14 112 21 23 30 26 80 6 109 -8 11 -77 61 -153 112 -156 104 -192 114 -238 67z"/>
 <path d="M3200 933 c-36 -14 -280 -185 -290 -202 -43 -81 41 -167 122 -125 64 33 267 174 282 196 40 57 1 139 -66 137 -18 0 -40 -3 -48 -6z"/>
 </g>

</svg>