<!DOCTYPE svg PUBLIC "-//W3C//DTD SVG 20010904//EN" "http://www.w3.org/TR/2001/REC-SVG-20010904/DTD/svg10.dtd">
<svg version="1.0" xmlns="http://www.w3.org/2000/svg" width="512px" height="512px" viewBox="0 0 5120 5120" preserveAspectRatio="xMidYMid meet">
<g id="layer101" fill="#000000" stroke="none">
 <path d="M22 4927 c-21 -22 -22 -31 -22 -233 l0 -209 660 -980 c364 -539 670 -990 680 -1002 23 -26 60 -38 95 -29 15 4 84 72 177 175 84 94 153 169 155 168 1 -1 258 -436 573 -967 314 -531 580 -973 592 -982 25 -22 76 -23 105 -3 12 8 117 182 233 385 l211 370 52 0 52 0 0 -82 c0 -96 20 -144 81 -198 71 -62 48 -60 686 -60 650 0 624 -2 697 71 50 50 71 102 71 182 0 109 -48 192 -137 237 -47 24 -55 25 -298 28 l-251 3 4 65 c4 54 0 72 -22 119 -15 30 -44 68 -66 85 -76 60 -95 64 -342 70 l-227 5 669 1170 669 1170 1 211 c0 207 0 211 -23 232 l-23 22 -2515 0 -2516 0 -21 -23z m4918 -271 l0 -114 -624 -1092 -624 -1092 -102 170 c-56 94 -110 178 -120 187 -28 25 -87 22 -117 -6 -13 -13 -104 -135 -201 -272 l-177 -247 -140 140 c-205 205 -209 204 -352 -33 l-98 -164 -340 576 c-187 316 -350 586 -362 598 -33 34 -86 31 -125 -7 -42 -42 -35 -74 45 -207 l65 -107 -71 -80 c-40 -44 -97 -106 -127 -138 l-55 -58 -615 915 -615 914 -3 115 -3 116 2381 0 2380 0 0 -114z m-1446 -2325 c48 -79 88 -147 89 -151 2 -7 -596 -1061 -599 -1057 -24 35 -487 825 -487 832 0 5 38 72 83 148 l83 138 142 -141 c128 -127 145 -140 177 -140 20 0 46 8 59 19 13 11 101 127 194 259 94 132 171 239 171 238 1 0 41 -66 88 -145z m711 -385 c33 -14 55 -41 55 -70 0 -29 -44 -67 -90 -77 -63 -14 -88 -33 -95 -73 -7 -36 6 -72 34 -93 12 -9 112 -12 389 -13 392 0 419 -3 436 -45 12 -34 6 -75 -16 -95 -21 -20 -32 -20 -569 -20 l-548 0 -20 26 c-12 15 -21 37 -21 49 0 34 37 73 75 81 92 17 115 126 35 166 -28 14 -61 18 -157 18 -68 0 -123 2 -123 5 0 3 19 39 43 80 l42 75 248 0 c191 0 255 -3 282 -14z"/>
 <path d="M3689 4587 c-19 -13 -225 -162 -458 -332 l-424 -308 -247 123 c-231 114 -250 122 -279 112 -17 -6 -147 -94 -288 -195 -142 -101 -264 -187 -270 -191 -8 -4 -158 125 -413 354 -221 199 -414 366 -429 371 -67 24 -137 -48 -112 -114 8 -20 588 -552 855 -784 80 -70 72 -73 401 161 l287 205 240 -120 c138 -68 252 -119 268 -119 22 0 141 82 497 341 257 187 480 352 496 367 20 19 27 35 27 64 0 79 -80 114 -151 65z"/>
 <path d="M180 1015 c-103 -32 -180 -138 -180 -248 0 -73 20 -121 73 -175 78 -79 95 -82 511 -82 l363 0 -8 -42 c-14 -81 14 -169 73 -228 72 -72 47 -70 693 -70 l580 0 51 24 c192 89 189 369 -6 472 -31 17 -64 19 -286 22 l-252 3 2 62 c1 86 -24 146 -84 200 -88 79 -64 77 -819 76 -540 0 -675 -3 -711 -14z m1397 -191 c39 -29 42 -72 7 -107 -15 -15 -37 -27 -50 -27 -32 0 -75 -18 -90 -38 -23 -29 -17 -90 11 -117 l24 -25 380 0 c380 0 380 0 405 -23 37 -31 43 -75 16 -110 l-21 -27 -549 0 -549 0 -21 22 c-24 26 -26 75 -5 105 8 11 34 26 59 32 53 13 76 41 76 91 -1 42 -17 65 -54 80 -17 6 -196 10 -496 10 -323 0 -477 3 -493 11 -57 26 -59 95 -4 129 31 20 50 20 679 18 639 -3 647 -3 675 -24z"/>
 </g>

</svg>