<!DOCTYPE svg PUBLIC "-//W3C//DTD SVG 20010904//EN" "http://www.w3.org/TR/2001/REC-SVG-20010904/DTD/svg10.dtd">
<svg version="1.0" xmlns="http://www.w3.org/2000/svg" width="512px" height="512px" viewBox="0 0 5120 5120" preserveAspectRatio="xMidYMid meet">
<g id="layer101" fill="#000000" stroke="none">
 <path d="M230 4993 c-8 -3 -25 -15 -37 -26 -22 -19 -23 -28 -23 -162 l0 -142 -61 -6 c-79 -7 -109 -32 -109 -92 0 -62 29 -85 108 -85 l62 0 0 -105 c0 -102 1 -107 26 -130 29 -27 72 -32 106 -14 32 17 48 71 48 164 0 74 2 85 18 85 12 -1 315 -505 1067 -1776 578 -977 1061 -1785 1074 -1795 38 -30 78 -24 117 17 19 19 34 40 34 45 0 5 230 9 580 9 645 0 620 -2 693 68 21 20 45 50 54 65 20 40 32 120 23 167 l-7 40 68 0 c67 0 69 -1 108 -42 54 -57 107 -159 127 -244 43 -181 -40 -411 -187 -521 -94 -70 -109 -88 -109 -130 0 -28 7 -46 23 -61 35 -32 145 -80 225 -97 353 -74 712 129 827 466 37 110 46 278 20 394 -21 95 -90 234 -149 301 l-45 51 19 39 c46 89 14 225 -71 297 -79 68 -68 67 -804 67 -763 0 -735 3 -822 -84 -61 -61 -89 -136 -78 -211 l7 -45 -92 0 c-56 0 -90 4 -88 10 2 5 397 676 878 1489 625 1058 880 1480 893 1481 15 0 17 -11 17 -85 0 -93 16 -147 48 -164 34 -18 77 -13 106 14 25 23 26 28 26 130 l0 105 63 0 c79 0 107 23 107 86 0 58 -31 84 -109 91 l-61 6 0 142 c0 134 -1 143 -22 162 -33 29 -57 35 -95 22 -52 -17 -63 -53 -63 -204 l0 -125 -45 0 c-101 0 -42 88 -804 -1201 -382 -646 -698 -1178 -703 -1184 -5 -5 4 22 21 60 17 39 230 536 474 1105 l444 1035 45 5 c121 15 165 96 156 293 -5 119 -23 160 -86 199 l-37 23 -1675 0 -1675 0 -37 -23 c-63 -39 -81 -80 -86 -199 -9 -197 35 -278 156 -293 l45 -5 473 -1104 c260 -607 470 -1100 465 -1095 -4 5 -320 537 -702 1183 -762 1289 -703 1201 -804 1201 l-45 0 0 125 c0 148 -11 187 -60 204 -36 12 -38 12 -60 4z m3950 -253 l0 -80 -1620 0 -1620 0 0 80 0 80 1620 0 1620 0 0 -80z m-2254 -469 c52 -112 94 -206 94 -208 0 -2 -153 -2 -341 -1 l-341 3 -60 140 c-33 77 -72 170 -88 208 l-29 67 335 -2 336 -3 94 -204z m1144 167 c-100 -223 -506 -1097 -510 -1097 -3 0 -104 214 -224 477 -121 262 -239 519 -263 570 l-42 92 529 0 529 0 -19 -42z m860 -25 c-16 -38 -55 -131 -88 -208 l-60 -140 -341 -3 c-188 -1 -341 -1 -341 1 0 2 34 78 76 168 42 90 85 183 95 207 l18 42 335 0 335 0 -29 -67z m-1675 -855 c82 -178 155 -333 164 -345 27 -37 88 -65 140 -65 54 0 94 18 132 59 15 15 93 173 174 351 l149 322 344 0 c271 0 343 -3 339 -12 -24 -61 -1129 -2633 -1133 -2640 -5 -8 -1144 2629 -1144 2648 0 2 154 4 343 4 l343 0 149 -322z m2484 -1927 c40 -38 40 -71 0 -105 l-31 -26 -474 0 c-522 0 -536 -1 -550 -57 -17 -66 7 -108 71 -124 25 -6 52 -21 60 -32 22 -31 18 -77 -7 -104 l-21 -23 -504 0 c-277 0 -503 3 -503 7 0 3 19 39 43 79 l42 74 303 0 303 0 24 25 c18 17 25 35 25 63 0 48 -27 79 -77 88 -70 12 -102 39 -103 85 0 25 30 61 60 72 8 3 306 6 661 6 l647 1 31 -29z m66 -353 c53 -60 96 -138 120 -223 25 -86 17 -238 -18 -322 -95 -231 -327 -369 -570 -339 l-56 7 54 67 c109 135 158 272 159 447 1 136 -15 211 -68 320 l-42 85 181 3 c99 1 183 3 187 5 3 1 27 -21 53 -50z"/>
 <path d="M1131 1896 c-17 -18 -24 -41 -28 -85 l-6 -61 -57 0 c-69 0 -101 -26 -103 -84 -1 -55 36 -88 106 -94 l54 -4 6 -56 c4 -41 12 -62 31 -81 34 -33 86 -34 121 -1 21 20 25 32 25 80 l0 57 61 6 c48 4 68 11 86 30 33 33 34 89 2 123 -19 20 -32 24 -86 24 l-63 0 0 63 c0 53 -4 67 -23 85 -33 31 -96 30 -126 -2z"/>
 <path d="M190 1061 c-78 -24 -157 -99 -178 -169 -16 -53 -15 -135 2 -176 21 -50 80 -111 134 -138 46 -23 52 -23 418 -26 l372 -3 0 -72 c-1 -46 6 -88 17 -115 21 -52 100 -124 153 -140 28 -9 196 -12 599 -12 634 0 620 -2 697 76 104 104 100 270 -10 377 -63 61 -96 67 -370 67 l-242 0 9 40 c23 100 -40 217 -145 273 -41 22 -44 22 -736 24 -382 1 -706 -2 -720 -6z m1373 -183 c56 -29 63 -83 16 -122 -17 -14 -42 -26 -55 -26 -32 0 -80 -25 -88 -45 -8 -21 -8 -69 0 -90 17 -42 44 -45 436 -45 393 -1 392 -1 416 -47 18 -34 14 -58 -14 -87 l-27 -26 -540 0 -541 0 -23 22 c-16 15 -23 33 -23 58 0 43 21 66 74 81 51 14 76 42 76 83 0 45 -8 64 -34 79 -15 9 -152 13 -513 17 l-491 5 -26 24 c-34 32 -33 66 3 102 l29 29 652 0 c476 0 657 -3 673 -12z"/>
 <path d="M3350 615 c-18 -19 -25 -40 -28 -85 l-4 -60 -57 0 c-62 -1 -85 -13 -101 -55 -26 -68 28 -125 120 -125 l40 0 0 -40 c0 -63 22 -106 63 -119 38 -13 62 -7 95 22 18 17 22 31 22 77 l0 57 61 6 c77 7 109 33 109 89 0 61 -33 88 -110 88 l-60 0 0 59 c0 79 -24 111 -84 111 -32 0 -48 -6 -66 -25z"/>
 </g>

</svg>