<!DOCTYPE svg PUBLIC "-//W3C//DTD SVG 20010904//EN" "http://www.w3.org/TR/2001/REC-SVG-20010904/DTD/svg10.dtd">
<svg version="1.0" xmlns="http://www.w3.org/2000/svg" width="664px" height="630px" viewBox="0 0 6640 6300" preserveAspectRatio="xMidYMid meet">
<g id="layer101" fill="#010101" stroke="none">
 <path d="M0 3150 l0 -3150 3320 0 3320 0 0 3150 0 3150 -3320 0 -3320 0 0 -3150z"/>
 </g>
<g id="layer102" fill="#d1d1d1" stroke="none">
 <path d="M0 3150 l0 -3150 3320 0 3320 0 0 3150 0 3150 -3320 0 -3320 0 0 -3150z m6130 3001 c61 -32 116 -86 148 -146 l27 -50 3 -412 3 -412 -28 -31 c-23 -25 -39 -33 -90 -40 -68 -9 -108 -32 -147 -83 -23 -30 -44 -96 -40 -124 1 -7 2 -23 3 -36 2 -33 54 -109 90 -130 16 -9 56 -22 87 -28 68 -13 98 -30 113 -67 8 -20 11 -609 9 -2157 l-3 -2130 -27 -50 c-32 -60 -87 -114 -148 -146 l-45 -24 -1685 -3 c-1862 -3 -1739 -7 -1830 62 -25 18 -61 60 -80 92 l-35 58 -5 351 -5 350 -1010 5 c-963 5 -1012 6 -1045 24 -66 35 -115 84 -145 142 l-30 59 0 2160 0 2160 24 49 c30 61 92 122 151 150 45 21 55 21 1050 26 l1005 5 6 96 c5 87 9 103 40 154 39 65 103 118 169 139 38 13 289 14 1735 13 l1690 -2 45 -24z"/>
 <path d="M2703 5961 c-44 -27 -53 -49 -53 -126 l0 -65 253 2 252 3 0 100 0 100 -210 3 c-193 2 -213 1 -242 -17z"/>
 <path d="M3364 5967 c-3 -8 -4 -54 -2 -103 l3 -89 90 -6 c147 -10 222 -55 277 -167 l33 -67 0 -2155 0 -2155 -25 -50 c-30 -60 -85 -116 -142 -147 -43 -23 -46 -23 -495 -26 l-453 -3 0 -323 c0 -426 -21 -398 300 -394 l205 3 5 220 c6 243 9 256 67 276 24 7 42 7 66 0 58 -20 61 -33 67 -276 l5 -220 1013 -3 1012 -2 0 2085 c0 2251 -3 2131 51 2169 48 33 118 14 144 -39 13 -30 15 -257 15 -2124 l0 -2091 205 0 c236 0 266 7 290 64 13 31 15 307 15 2076 l0 2041 -65 29 c-120 54 -214 173 -233 296 -18 110 -2 191 55 286 43 72 97 119 179 155 l64 27 0 314 c0 353 -3 372 -64 397 -27 12 -83 15 -241 15 l-205 0 0 -360 c0 -386 -3 -415 -50 -440 -33 -18 -88 -15 -112 7 -46 40 -48 61 -48 438 l0 355 -1010 0 c-831 0 -1012 -2 -1016 -13z m857 -1023 c17 -8 37 -30 45 -50 12 -29 12 -39 0 -68 -28 -68 -100 -87 -154 -41 -53 44 -47 120 12 156 38 23 58 24 97 3z m393 6 c8 0 25 -12 40 -26 59 -60 14 -164 -71 -164 -81 1 -129 96 -79 159 15 19 68 41 84 36 8 -3 19 -5 26 -5z m442 -22 c43 -39 37 -121 -11 -152 -64 -42 -155 7 -155 82 1 87 102 129 166 70z m379 18 c18 -8 41 -28 49 -45 47 -90 -72 -185 -149 -118 -56 49 -47 134 17 162 41 18 42 18 83 1z m-1206 -412 c52 -37 51 -11 50 -1026 0 -519 -4 -965 -8 -992 -13 -78 -72 -113 -138 -82 -67 32 -64 -21 -61 1070 l3 985 29 30 c34 36 86 42 125 15z m420 -15 l31 -31 0 -999 c0 -1109 5 -1036 -66 -1059 -45 -15 -96 1 -115 37 -12 22 -14 186 -14 1024 l0 998 29 30 c41 43 92 43 135 0z m407 0 l29 -30 0 -998 c0 -838 -2 -1002 -14 -1024 -19 -36 -70 -52 -115 -37 -71 23 -66 -50 -66 1059 l0 999 31 31 c43 43 94 43 135 0z m-649 -2210 c15 -5 60 -42 100 -81 l72 -72 80 77 c77 74 94 82 146 77 26 -2 73 -49 75 -75 6 -55 -3 -69 -100 -169 l-100 -103 0 -236 c0 -160 3 -237 11 -237 5 0 89 47 186 105 194 116 228 126 278 82 38 -33 45 -95 14 -130 -13 -15 -127 -89 -254 -165 l-230 -137 -5 -195 c-3 -107 -9 -203 -13 -212 -9 -16 -65 -48 -87 -48 -6 0 -25 7 -41 16 -51 26 -59 62 -59 261 l-1 178 -240 144 c-197 118 -243 150 -256 176 -31 65 14 135 87 135 34 0 70 -18 223 -109 l182 -110 3 243 2 244 -71 68 c-94 90 -129 139 -129 179 0 36 31 82 64 95 28 12 30 12 63 -1z"/>
 <path d="M473 5560 c-13 -5 -32 -24 -43 -42 -20 -33 -20 -50 -20 -2131 0 -2276 -3 -2132 52 -2171 20 -14 180 -16 1530 -16 l1508 0 32 29 33 29 3 2099 c2 1503 0 2109 -8 2136 -7 25 -22 45 -43 57 -31 20 -62 20 -1527 19 -864 0 -1504 -4 -1517 -9z m2535 -416 c12 -8 29 -29 38 -45 21 -41 4 -93 -40 -120 -30 -18 -62 -19 -1009 -19 -1074 0 -1030 -2 -1062 60 -24 47 -7 101 40 128 15 8 286 11 1015 12 886 0 998 -2 1018 -16z m-808 -514 c398 -77 718 -379 822 -777 27 -105 31 -134 31 -263 1 -125 -3 -159 -25 -246 -103 -399 -386 -686 -782 -791 -89 -24 -119 -27 -251 -27 -128 1 -165 5 -252 27 -283 72 -489 217 -647 456 -129 193 -198 482 -166 692 39 264 122 443 282 614 113 121 302 242 451 289 153 48 370 59 537 26z m818 -2445 c39 -33 47 -67 26 -112 -32 -66 19 -63 -1056 -63 -906 0 -975 1 -1008 18 -49 24 -68 77 -45 125 9 19 26 39 38 45 15 7 337 11 1019 11 l996 1 30 -25z m-18 -392 c53 -37 68 -78 45 -127 -9 -18 -27 -38 -41 -45 -36 -16 -1992 -16 -2028 0 -14 7 -32 27 -41 46 -22 45 -6 97 39 124 30 18 63 19 1016 19 912 0 987 -1 1010 -17z"/>
 <path d="M1830 4435 c-80 -14 -143 -36 -240 -85 l-60 -30 0 -111 c0 -76 4 -119 14 -138 8 -15 56 -66 107 -112 185 -169 244 -322 170 -442 -24 -39 -86 -96 -123 -114 -13 -6 -58 -27 -100 -47 -67 -30 -78 -38 -78 -60 0 -49 85 -239 196 -438 l59 -107 60 -10 c107 -18 148 -20 235 -10 114 13 118 14 93 42 -62 66 -128 226 -116 276 13 58 50 110 129 187 97 93 100 102 58 204 -77 190 -71 405 16 552 41 68 78 101 193 169 33 19 68 47 79 62 l20 28 -22 17 c-205 152 -443 209 -690 167z"/>
 <path d="M1268 4061 c-182 -275 -187 -648 -11 -929 47 -76 177 -221 188 -210 4 3 -7 32 -23 64 -92 184 -127 340 -93 421 17 41 91 95 192 141 114 51 129 60 129 78 0 31 -43 96 -96 147 -134 125 -161 155 -185 207 -15 30 -29 76 -33 103 -4 26 -11 47 -15 47 -4 0 -27 -31 -53 -69z"/>
 <path d="M2642 4057 c-18 -19 -69 -55 -113 -81 -96 -57 -126 -97 -142 -190 -14 -85 1 -192 43 -299 33 -84 41 -167 21 -220 -19 -50 -73 -120 -140 -183 l-66 -61 20 -37 c11 -21 44 -66 73 -102 l52 -64 58 37 c247 157 401 433 402 719 0 108 -24 241 -60 331 -30 76 -94 183 -108 183 -4 0 -23 -15 -40 -33z"/>
 </g>
<g id="layer103" fill="#ffffff" stroke="none">
 <path d="M0 3150 l0 -3150 3320 0 3320 0 0 3150 0 3150 -3320 0 -3320 0 0 -3150z m6120 3010 c30 -11 62 -29 72 -40 9 -11 21 -20 27 -20 6 0 11 -4 11 -10 0 -5 11 -20 23 -33 13 -12 32 -47 41 -77 15 -49 17 -101 14 -463 l-3 -409 -26 -22 c-15 -13 -47 -26 -73 -29 -57 -8 -112 -36 -150 -76 -30 -31 -36 -53 -38 -129 -1 -46 37 -142 57 -142 7 0 20 -8 29 -19 16 -18 75 -33 123 -32 12 0 36 -13 52 -30 l31 -31 0 -2136 c0 -2108 0 -2138 -20 -2192 -11 -30 -29 -62 -40 -72 -11 -9 -20 -21 -20 -27 0 -6 -4 -11 -10 -11 -5 0 -20 -11 -33 -23 -12 -13 -47 -31 -77 -41 -51 -15 -181 -17 -1755 -14 l-1700 3 -42 24 c-24 12 -43 27 -43 31 0 4 -9 10 -20 13 -11 3 -23 13 -27 24 -4 10 -15 24 -25 31 -10 7 -18 20 -18 28 0 8 -7 29 -16 46 -13 25 -16 82 -17 372 l-2 341 -1008 2 c-981 2 -1008 3 -1052 22 -25 11 -45 25 -45 30 0 6 -7 11 -15 11 -20 0 -91 97 -105 145 -8 30 -10 602 -8 2200 l3 2160 22 39 c13 22 26 42 31 45 4 3 15 18 25 34 10 15 23 27 29 27 6 0 26 11 43 24 18 14 43 28 56 31 13 3 474 7 1024 8 l1000 2 1 85 c1 58 6 95 18 117 9 18 16 39 16 47 0 8 8 21 18 28 10 7 21 21 25 31 4 11 16 21 27 24 11 3 20 9 20 14 0 11 63 40 105 50 17 3 786 7 1710 8 1654 1 1681 1 1735 -19z"/>
 <path d="M2745 5970 c-3 -5 -15 -10 -25 -10 -10 0 -29 -13 -42 -30 -20 -26 -22 -37 -18 -92 l5 -63 245 0 245 0 0 100 0 100 -202 3 c-129 1 -204 -1 -208 -8z"/>
 <path d="M3364 5967 c-3 -8 -4 -54 -2 -103 l3 -89 90 -1 c76 -1 97 -5 137 -26 99 -54 160 -133 176 -228 11 -69 13 -4232 1 -4246 -6 -7 -8 -17 -5 -22 8 -14 -31 -113 -54 -134 -11 -10 -20 -23 -20 -29 0 -5 -10 -14 -22 -19 -13 -6 -45 -24 -73 -41 l-49 -31 -441 -2 -440 -1 -5 -318 -5 -318 23 -29 c13 -17 31 -30 41 -30 9 0 22 -5 27 -10 7 -7 84 -9 210 -8 l199 3 2 210 c1 116 2 218 3 228 0 24 45 64 80 72 35 8 96 -18 111 -47 6 -12 11 -109 12 -241 l2 -222 1013 -3 1012 -2 0 2092 c0 1151 3 2103 6 2116 9 32 81 72 119 65 34 -6 78 -47 84 -78 3 -11 5 -959 5 -2108 l1 -2087 202 0 c113 0 204 4 208 9 3 5 18 12 34 16 22 5 31 14 36 36 4 16 11 31 16 34 5 4 9 809 9 2044 l0 2038 -40 13 c-22 7 -45 19 -51 27 -6 7 -18 13 -26 13 -23 0 -141 126 -152 163 -5 17 -17 51 -25 74 -9 23 -13 49 -10 57 3 8 0 24 -6 36 -9 16 -7 38 5 95 10 42 21 78 26 81 5 3 9 14 9 25 0 11 7 22 15 25 8 4 15 12 15 20 0 40 169 164 223 164 15 0 17 29 17 314 0 182 -4 317 -9 321 -5 3 -12 18 -16 34 -5 22 -14 31 -36 36 -16 4 -31 11 -34 16 -4 5 -95 9 -208 9 l-202 0 0 -357 c-1 -197 -3 -371 -7 -388 -17 -86 -154 -98 -197 -18 -6 12 -11 26 -10 30 1 4 1 171 0 371 l-1 362 -1010 0 c-831 0 -1012 -2 -1016 -13z m855 -1011 c64 -34 78 -121 27 -172 -56 -56 -163 -23 -172 53 -4 39 25 102 55 118 34 18 55 18 90 1z m433 -23 c15 -14 30 -38 33 -52 9 -43 -19 -97 -61 -117 -33 -16 -41 -16 -77 -3 -45 16 -85 75 -71 107 4 9 6 21 5 26 -3 14 41 56 60 56 10 0 21 5 25 11 9 16 55 1 86 -28z m353 27 c3 -5 11 -7 18 -4 14 5 69 -47 66 -62 -1 -5 1 -17 5 -26 12 -28 -22 -87 -60 -103 -28 -11 -41 -12 -76 -2 -35 11 -46 20 -62 52 -17 36 -17 44 -5 79 18 51 96 96 114 66z m428 -3 c44 -19 57 -37 62 -90 4 -41 1 -50 -25 -79 -25 -27 -37 -32 -74 -32 -62 0 -98 36 -101 101 -2 39 1 50 24 71 45 42 68 48 114 29z m-1181 -439 l28 -29 0 -971 c0 -533 2 -974 5 -978 3 -5 1 -11 -4 -14 -5 -3 -7 -14 -5 -24 3 -9 -8 -32 -24 -52 -26 -31 -36 -35 -76 -35 -36 0 -51 5 -73 28 l-28 27 -3 1011 -2 1010 32 29 c52 47 105 47 150 -2z m372 27 c22 -9 41 -26 47 -41 12 -34 13 -2003 0 -2036 -12 -32 -73 -61 -110 -53 -16 3 -41 20 -57 36 l-29 30 -3 990 c-3 1096 -6 1040 61 1073 40 19 46 20 91 1z m411 -1 c69 -32 66 26 63 -1073 l-3 -990 -29 -30 c-16 -16 -41 -33 -57 -36 -37 -8 -98 21 -110 53 -13 34 -12 2002 1 2036 9 24 56 53 88 55 8 1 29 -6 47 -15z m-628 -2235 c15 -5 60 -41 98 -80 l71 -69 64 66 c69 70 96 87 145 89 90 5 134 -93 77 -171 -11 -16 -57 -65 -101 -109 l-81 -80 0 -232 c0 -158 3 -233 11 -233 6 0 25 11 43 25 18 14 37 25 43 25 5 0 27 13 49 30 21 16 44 30 50 30 5 0 26 12 45 26 19 14 48 32 64 40 17 8 41 21 55 29 19 10 36 12 64 5 92 -21 117 -105 51 -173 -20 -21 -40 -37 -45 -37 -5 0 -26 -12 -47 -26 -21 -14 -47 -30 -58 -35 -11 -5 -87 -51 -170 -102 l-150 -92 -3 -195 -2 -194 -29 -28 c-24 -23 -34 -27 -75 -23 -51 4 -101 38 -92 62 3 7 1 15 -4 18 -6 4 -10 82 -10 185 l0 178 -42 31 c-23 17 -47 31 -52 31 -6 0 -29 14 -50 30 -22 17 -44 30 -50 30 -6 0 -29 14 -50 30 -22 17 -44 30 -49 30 -6 0 -24 11 -41 23 -17 13 -47 31 -66 41 -20 9 -50 30 -68 46 -26 23 -32 36 -32 70 0 52 12 75 49 93 53 26 108 7 287 -102 l164 -99 0 241 0 242 -97 98 c-94 95 -97 100 -97 143 0 37 5 49 32 74 36 32 55 36 99 19z"/>
 <path d="M464 5547 c-58 -45 -54 108 -53 -2166 0 -1959 2 -2088 18 -2116 9 -16 33 -38 52 -47 32 -17 124 -18 1507 -18 1251 0 1478 2 1507 14 23 10 40 28 54 57 21 43 21 43 21 2120 0 1259 -4 2080 -9 2084 -5 3 -12 19 -16 36 -4 19 -16 34 -32 40 -15 5 -612 10 -1526 12 -1424 2 -1502 1 -1523 -16z m2568 -417 c22 -24 27 -40 26 -71 -1 -23 -9 -50 -18 -61 -38 -48 -32 -48 -1062 -48 -634 0 -969 3 -973 10 -3 6 -14 10 -24 10 -29 0 -52 35 -56 86 -4 41 0 51 23 74 15 15 33 29 39 31 7 2 464 3 1015 2 l1002 -3 28 -30z m-912 -480 c3 -1 23 -3 45 -4 52 -3 231 -60 270 -86 17 -11 38 -20 47 -20 9 0 30 -11 46 -25 17 -14 34 -25 39 -25 6 0 22 -11 37 -25 15 -14 31 -25 36 -25 6 0 48 -37 94 -82 85 -83 206 -247 206 -279 0 -9 7 -22 15 -29 8 -7 20 -31 26 -54 6 -22 20 -60 30 -83 10 -23 21 -57 23 -75 3 -18 6 -33 7 -33 16 0 15 -400 -1 -435 -1 -3 -2 -9 -1 -14 4 -18 -58 -191 -80 -226 -5 -8 -20 -38 -33 -65 -13 -28 -31 -57 -40 -64 -9 -7 -16 -20 -16 -27 0 -8 -9 -19 -20 -26 -11 -7 -20 -17 -20 -21 0 -5 -15 -23 -32 -42 -18 -18 -37 -37 -43 -43 -37 -40 -97 -92 -105 -92 -5 0 -14 -9 -20 -20 -6 -11 -17 -20 -24 -20 -8 0 -20 -7 -27 -16 -7 -9 -36 -26 -65 -39 -28 -12 -54 -28 -58 -34 -4 -6 -39 -20 -79 -32 -40 -11 -77 -25 -83 -30 -6 -5 -24 -11 -40 -13 -16 -2 -36 -6 -44 -9 -8 -3 -22 -5 -30 -6 -8 0 -33 -2 -55 -5 -22 -3 -76 -5 -120 -5 -69 1 -100 2 -195 10 -8 0 -22 3 -30 6 -8 3 -28 7 -45 9 -41 6 -165 51 -205 75 -8 5 -37 21 -65 35 -56 28 -118 70 -123 85 -2 5 -8 9 -14 9 -5 0 -24 15 -43 33 -19 17 -41 39 -49 47 -47 45 -126 135 -126 144 0 5 -6 17 -14 25 -54 61 -176 370 -162 408 3 8 3 20 -1 26 -9 13 -11 47 -11 157 0 111 2 134 11 148 5 7 6 20 3 30 -14 44 81 300 140 379 13 17 24 36 24 42 0 5 6 14 13 18 7 4 21 22 31 38 25 39 150 165 165 165 6 0 11 5 11 10 0 12 162 120 180 120 7 0 33 11 59 24 85 44 236 88 273 81 14 -4 28 -3 31 2 4 6 240 9 257 3z m895 -2450 c51 -27 58 -116 13 -161 l-29 -29 -1007 0 -1007 0 -27 23 c-22 17 -29 33 -32 72 -5 52 2 69 40 95 18 13 161 15 1025 13 694 -2 1010 -6 1024 -13z m13 -419 c40 -40 41 -94 4 -139 l-27 -32 -1009 0 c-670 0 -1013 3 -1020 10 -5 5 -15 10 -21 10 -19 0 -33 36 -31 84 1 39 7 53 29 72 l28 24 1009 0 1008 0 30 -29z"/>
 <path d="M1896 4443 c-1 -1 -16 -4 -32 -7 -16 -2 -36 -6 -44 -8 -8 -3 -48 -15 -88 -27 -40 -12 -98 -36 -130 -52 l-57 -30 -5 -107 c-4 -83 -2 -113 10 -132 18 -32 80 -104 94 -109 29 -12 150 -153 179 -210 30 -58 34 -74 33 -137 -2 -56 -7 -78 -26 -105 -34 -50 -72 -90 -95 -100 -11 -5 -27 -13 -35 -18 -38 -22 -97 -49 -120 -54 -14 -3 -33 -12 -43 -19 -16 -12 -16 -16 -2 -68 18 -61 36 -106 66 -161 10 -20 19 -42 19 -48 0 -6 27 -57 59 -114 33 -56 67 -122 76 -145 10 -24 24 -42 34 -43 9 0 27 -3 41 -5 110 -18 167 -20 245 -10 33 5 68 9 78 9 22 2 22 4 -10 46 -35 44 -96 162 -88 169 2 3 0 11 -7 19 -6 7 -8 16 -5 20 4 3 2 12 -4 19 -6 7 -7 19 -3 26 5 7 9 18 9 23 2 40 83 155 109 155 18 0 70 60 89 100 13 30 14 42 4 70 -7 19 -15 40 -19 45 -14 23 -48 154 -42 168 3 8 1 17 -3 20 -5 3 -8 52 -7 109 1 99 13 160 41 203 7 11 13 28 13 38 0 32 119 142 200 184 85 45 119 86 86 105 -10 5 -26 18 -36 27 -21 20 -50 39 -70 47 -8 3 -26 11 -40 19 -14 8 -34 19 -45 24 -28 13 -164 51 -203 57 -39 5 -221 11 -226 7z"/>
 <path d="M1310 4115 c0 -7 -6 -18 -12 -22 -15 -10 -32 -36 -53 -83 -9 -19 -22 -41 -29 -50 -7 -8 -28 -64 -47 -125 -30 -98 -34 -124 -35 -233 -2 -116 15 -229 47 -307 57 -143 164 -301 241 -356 l27 -20 -26 53 c-14 29 -32 67 -40 83 -23 46 -74 205 -72 224 1 9 -1 24 -6 33 -4 10 -4 26 0 35 4 10 8 29 9 42 1 14 22 41 55 71 51 46 64 54 141 87 19 8 42 19 50 24 8 5 22 12 30 15 60 23 61 24 55 47 -13 41 -82 142 -106 154 -13 7 -28 18 -34 25 -5 7 -22 21 -37 31 -40 25 -104 115 -119 167 -13 45 -15 54 -18 98 -1 24 -21 31 -21 7z"/>
 <path d="M2632 4045 c-23 -25 -48 -45 -56 -45 -8 0 -16 -6 -19 -12 -2 -7 -28 -24 -56 -38 -46 -22 -56 -32 -82 -89 -25 -52 -31 -76 -31 -140 -1 -74 17 -160 48 -228 8 -17 14 -38 14 -46 0 -9 5 -19 11 -23 6 -3 8 -16 5 -27 -3 -12 0 -27 5 -34 6 -6 7 -18 3 -25 -5 -7 -7 -20 -6 -29 6 -36 -61 -135 -141 -210 l-80 -75 44 -63 c24 -35 49 -72 55 -83 23 -40 44 -46 84 -27 20 10 42 25 50 33 7 9 18 16 26 16 7 0 18 9 24 20 6 11 16 20 23 20 13 0 77 60 77 72 0 4 21 36 48 71 65 89 112 168 112 190 0 10 7 34 16 55 9 20 17 47 20 60 2 12 6 34 9 50 11 49 13 226 3 272 -5 25 -11 54 -12 65 -2 11 -8 32 -14 46 -5 14 -16 45 -23 70 -7 24 -26 65 -41 90 -15 25 -28 50 -28 55 -1 9 -35 54 -42 54 -2 0 -23 -20 -46 -45z"/>
 </g>

</svg>